<svg xmlns="http://www.w3.org/2000/svg" height="48" width="48"><path d="M37.7 42.95q-.35 0-.575-.125-.225-.125-.425-.325L25.15 30.95q-.25-.2-.35-.425-.1-.225-.1-.525 0-.35.1-.575.1-.225.35-.425l3.75-3.8q.25-.2.475-.325.225-.125.525-.125.3 0 .525.125.225.125.475.325l11.55 11.55q.2.25.325.475.125.225.125.525 0 .35-.125.575-.125.225-.325.425L38.7 42.5q-.25.2-.475.325-.225.125-.525.125Zm0-2.5 2.65-2.7-10.45-10.5-2.7 2.7ZM10.25 42.9q-.3 0-.55-.075-.25-.075-.45-.325L5.5 38.8q-.25-.25-.325-.5-.075-.25-.075-.55 0-.3.075-.55.075-.25.325-.45l10.9-10.9h4.2l1.85-1.8-8.8-8.8H10.8l-5.65-5.6 4.4-4.45 5.65 5.7v2.85l8.75 8.75 6.5-6.45-3.8-3.8 2.55-2.6h-5.15l-.7-.65 5.8-5.85.75.7v5.2l2.55-2.6 8.45 8.45q.7.7 1.1 1.625.4.925.4 1.925 0 .75-.25 1.525-.25.775-.65 1.425l-4.2-4.2-2.8 2.85-2.5-2.5-9.85 9.9v4.2L11.25 42.5q-.2.25-.45.325-.25.075-.55.075Zm0-2.5L20.6 30.1v-2.7h-2.7L7.6 37.75Zm0 0L7.6 37.75l1.35 1.35 1.3 1.3Zm27.45.05 2.65-2.7Z"/></svg>